<svg xmlns="http://www.w3.org/2000/svg" width="54.014" height="53.768" viewBox="0 0 54.014 53.768"><defs><style>.a{fill:#008beb;}.b{fill:#009eef;}.c{fill:#fff;stroke:#fff;}</style></defs><g transform="translate(0 0)"><g transform="translate(0 0)"><path class="a" d="M527.447,575.532,504.7,563.3a5.913,5.913,0,0,1-2.562-7.525l12.18-27.427c1.618-3.643,5.506-5.314,8.64-3.63l27.079,14.556c3.133,1.685,3.847,5.829,1.656,9.164l-16.5,25.107A6.008,6.008,0,0,1,527.447,575.532Z" transform="translate(-498.946 -522.444)"/><path class="b" d="M493.924,554.663l-22.747-12.228a6.008,6.008,0,0,1-2.623-7.558L480.4,507.269c1.573-3.667,5.424-5.358,8.557-3.674l27.079,14.556c3.133,1.684,3.885,5.85,1.739,9.209l-16.157,25.289A5.913,5.913,0,0,1,493.924,554.663Z" transform="translate(-468.088 -502.941)"/></g><g transform="translate(12.039 11.558)"><g transform="translate(0)"><g transform="translate(0)"><path class="c" d="M43.206,6.286c-.1-.1-.195-.191-.293-.284l.954-1.145,1.564,1.3,1.476-1.769L42.009.308,40.534,2.077l1.564,1.3L41.11,4.566a13.46,13.46,0,0,0-6.364-2.213V0h-2.3V2.353a13.594,13.594,0,0,0-8.46,23.157A13.594,13.594,0,1,0,43.206,6.286Zm-9.612,20.9A11.29,11.29,0,1,1,44.884,15.9,11.3,11.3,0,0,1,33.594,27.188Z" transform="translate(-20)"/><path class="c" d="M223.021,143.019l-4.357,5.384a2.306,2.306,0,1,0,1.791,1.45l4.357-5.385Z" transform="translate(-204.71 -134.781)"/></g></g></g></g></svg>