<svg xmlns="http://www.w3.org/2000/svg" width="54.014" height="53.768" viewBox="0 0 54.014 53.768"><defs><style>.a{fill:#87b326;}.b{fill:#a4d72e;}.c{fill:#fff;stroke:#fff;}</style></defs><g transform="translate(0 0)"><g transform="translate(0 0)"><path class="a" d="M527.447,575.532,504.7,563.3a5.913,5.913,0,0,1-2.562-7.525l12.18-27.427c1.618-3.643,5.506-5.314,8.64-3.63l27.079,14.556c3.133,1.685,3.847,5.829,1.656,9.164l-16.5,25.107A6.008,6.008,0,0,1,527.447,575.532Z" transform="translate(-498.946 -522.444)"/><path class="b" d="M493.924,554.663l-22.747-12.228a6.008,6.008,0,0,1-2.623-7.558L480.4,507.269c1.573-3.667,5.424-5.358,8.557-3.674l27.079,14.556c3.133,1.684,3.885,5.85,1.739,9.209l-16.157,25.289A5.913,5.913,0,0,1,493.924,554.663Z" transform="translate(-468.088 -502.941)"/></g><path class="c" d="M30.328,14.66l-4-4a.9.9,0,1,0-1.267,1.267L27.532,14.4H16.194V3.06l2.471,2.471a.9.9,0,1,0,1.267-1.267l-4-4a.9.9,0,0,0-1.267,0l-4,4A.9.9,0,0,0,11.93,5.531L14.4,3.06V14.4H3.063l2.471-2.471a.9.9,0,0,0-1.267-1.267l-4,4c-.021.021-.041.043-.06.066a.9.9,0,0,0,.06,1.2l4,4a.9.9,0,0,0,1.267-1.267L3.063,16.19H14.4V27.528L11.93,25.057a.9.9,0,1,0-1.267,1.267l4,4a.9.9,0,0,0,1.268,0l4-4a.9.9,0,1,0-1.267-1.267l-2.471,2.471V16.19H27.532L25.06,18.661a.9.9,0,1,0,1.267,1.267l4-4A.9.9,0,0,0,30.328,14.66Z" transform="translate(10.349 10.835)"/></g></svg>