<svg xmlns="http://www.w3.org/2000/svg" width="156" height="208" viewBox="0 0 156 208"><defs><style>.a,.e{fill:#fff;}.a{opacity:0;}.b{fill:#ff9155;}.c{fill:#ffcdac;}.d{fill:#ffe6c3;}</style></defs><g transform="translate(-771 -218)"><rect class="a" width="156" height="208" transform="translate(771 218)"/><g transform="translate(778.985 252)"><path class="b" d="M63.7,10v9.773A27.216,27.216,0,0,0,75.105,41.927l17.309,12.35A38.13,38.13,0,0,1,108.4,85.316V85.7a44.115,44.115,0,0,1-21.685,37.987h0a44.114,44.114,0,0,1-22.43,6.128H54.164a44.115,44.115,0,0,1-22.4-6.112l-.034-.02a44.114,44.114,0,0,1-21.71-38v-.365A38.13,38.13,0,0,1,26,54.277l17.309-12.35A27.215,27.215,0,0,0,54.715,19.773V10Z" transform="translate(-7.265 -7.264)"/><path class="c" d="M264.738,159.791a24.411,24.411,0,0,0-1.074,22.325l7.906,17.356a34.2,34.2,0,0,1-1.5,31.278l-.172.3a39.568,39.568,0,0,1-33.88,19.782h0a39.567,39.567,0,0,1-20.171-5.3l-7.011-4.047a39.57,39.57,0,0,1-14.661-14.8l-.017-.031a39.567,39.567,0,0,1,.179-39.256l.164-.283a34.2,34.2,0,0,1,26.335-16.942l18.984-1.831a24.411,24.411,0,0,0,18.8-12.093Z" transform="translate(-137.31 -113.51)"/><path class="d" d="M279.958,231.229a35.267,35.267,0,0,1-9.99,2.474l-18.983,1.831a23.3,23.3,0,0,0-17.909,11.522l-.164.283a28.741,28.741,0,0,0-.129,28.4l.018.031a28.65,28.65,0,0,0,10.607,10.7l7.011,4.047a28.644,28.644,0,0,0,14.314,3.835h.279a28.744,28.744,0,0,0,24.511-14.312l.17-.3a23.3,23.3,0,0,0,1.025-21.274l-7.906-17.356A35.278,35.278,0,0,1,279.958,231.229Z" transform="translate(-166.414 -167.976)"/><g transform="translate(73.614 76.474)"><path class="e" d="M271.336,305.449l.012.021.015.027a17.7,17.7,0,0,0,6.553,6.613l7.01,4.047a17.708,17.708,0,0,0,8.843,2.37h.186a17.752,17.752,0,0,0,15.129-8.841l.166-.288a12.348,12.348,0,0,0,.548-11.274l-7.906-17.356q-.273-.6-.528-1.2-.652.081-1.307.145l-18.983,1.831a12.339,12.339,0,0,0-9.484,6.1l-.168.29A17.751,17.751,0,0,0,271.336,305.449Z" transform="translate(-269.066 -279.561)"/><path class="e" d="M312.882,332.979c7.2,4.03,11.986,4.192,14.049-1.251,1.887-4.98-5.823-13.452-5.823-13.452s-11.254-2.138-14.51,2.076C303.038,324.957,305.679,328.949,312.882,332.979Z" transform="translate(-295.188 -307.291)"/></g><path d="M60.634,220.482a2.736,2.736,0,0,0-4.709-2.785,35.233,35.233,0,0,0-4.836,17.937v.288a41.15,41.15,0,0,0,1.4,10.646,2.735,2.735,0,1,0,5.284-1.416,35.676,35.676,0,0,1-1.209-9.231v-.288A29.764,29.764,0,0,1,60.634,220.482Z" transform="translate(-37.102 -157.17)"/><path d="M70.833,352.85a2.735,2.735,0,0,0,4.681-2.832l-.018-.03a2.735,2.735,0,0,0-4.681,2.832Z" transform="translate(-51.151 -253.295)"/><path d="M136.749,84.828l-7.906-17.356a21.717,21.717,0,0,1,.954-19.823,2.735,2.735,0,0,0-1-3.737l-6.127-3.538a2.735,2.735,0,0,0-3.737,1,21.718,21.718,0,0,1-16.691,10.738L83.258,53.944a37.007,37.007,0,0,0-28.442,18.3l-.164.283a42.467,42.467,0,0,0-.2,41.961l.022.039a42.263,42.263,0,0,0,3.549,5.29H46.9a41.406,41.406,0,0,1-21.009-5.73l-.04-.024A41.544,41.544,0,0,1,5.486,78.416v-.365A35.463,35.463,0,0,1,20.322,49.239l17.308-12.35A30.007,30.007,0,0,0,50.185,12.508V5.471H53.7v7.038A30.008,30.008,0,0,0,66.251,36.89l15.61,11.138a2.736,2.736,0,0,0,3.178-4.454L69.429,32.436A24.526,24.526,0,0,1,59.168,12.508V2.736A2.735,2.735,0,0,0,56.432,0H47.45a2.735,2.735,0,0,0-2.736,2.736v9.773A24.527,24.527,0,0,1,34.453,32.436L17.144,44.786A40.943,40.943,0,0,0,.015,78.051v.365A46.85,46.85,0,0,0,23.066,118.77l.04.024a46.882,46.882,0,0,0,19.856,6.319V130.3a2.736,2.736,0,1,0,5.471,0v-5.014h3.283V137.32a2.736,2.736,0,0,0,5.471,0V125.286h3.283V130.3a2.736,2.736,0,1,0,5.471,0v-2.745a42.252,42.252,0,0,0,4.213,2.788l7.011,4.047a42.335,42.335,0,0,0,21.152,5.667l.413,0a42.476,42.476,0,0,0,36.223-21.15l.172-.3A37,37,0,0,0,136.749,84.828Zm-6.363,31.045-.172.3A36.833,36.833,0,0,1,79.9,129.652L72.889,125.6A36.858,36.858,0,0,1,59.246,111.84l-.022-.039a36.98,36.98,0,0,1,.166-36.542l.164-.283A31.525,31.525,0,0,1,83.783,59.39l18.984-1.831a27.209,27.209,0,0,0,19.416-11.148l1.63.941a27.206,27.206,0,0,0,.053,22.388L131.771,87.1A31.527,31.527,0,0,1,130.386,115.873Z"/><path d="M444.632,324.719l.013.028a2.736,2.736,0,0,0,4.97-2.286l-.013-.028a2.736,2.736,0,0,0-4.97,2.286Z" transform="translate(-322.813 -233.077)"/><path d="M285.7,260.709a2.733,2.733,0,0,0-3.021,2.416,20.392,20.392,0,0,1-2.621,7.991l-.169.294a26,26,0,0,1-22.166,12.944h-.256a25.924,25.924,0,0,1-12.946-3.469l-7.01-4.047a25.92,25.92,0,0,1-9.6-9.688l-.014-.024a25.994,25.994,0,0,1,.116-25.685l.165-.285a20.561,20.561,0,0,1,15.8-10.167l18.983-1.831a37.911,37.911,0,0,0,7.612-1.532,37.935,37.935,0,0,0,2.479,7.358l2.589,5.683a2.736,2.736,0,1,0,4.979-2.268l-2.589-5.683a32.5,32.5,0,0,1-2.631-9.122,2.736,2.736,0,0,0-3.748-2.164,32.5,32.5,0,0,1-9.216,2.283l-18.983,1.831a26.041,26.041,0,0,0-20.015,12.875l-.165.285a31.49,31.49,0,0,0-.138,31.121l.014.024a31.385,31.385,0,0,0,11.62,11.727l7.01,4.047a31.4,31.4,0,0,0,15.682,4.2h.306a31.493,31.493,0,0,0,26.855-15.681l.169-.294a25.824,25.824,0,0,0,3.319-10.12A2.735,2.735,0,0,0,285.7,260.709Z" transform="translate(-159.154 -160.71)"/><path d="M269.288,307.214l7.01,4.047A20.464,20.464,0,0,0,286.524,314h.2a20.5,20.5,0,0,0,17.473-10.211l.165-.287a15.092,15.092,0,0,0,.668-13.776l-7.906-17.356c-.171-.375-.338-.756-.5-1.132a2.737,2.737,0,0,0-2.859-1.652q-.615.077-1.232.136L273.55,271.55A15.078,15.078,0,0,0,261.961,279l-.169.292a20.5,20.5,0,0,0-.1,20.233l.013.024.015.027A20.433,20.433,0,0,0,269.288,307.214Zm-2.759-25.181.169-.292A9.6,9.6,0,0,1,274.075,277l18.336-1.769,7.637,16.764a9.612,9.612,0,0,1-.428,8.774l-.165.287a14.994,14.994,0,0,1-12.776,7.474h-.17a14.973,14.973,0,0,1-7.476-2l-7.01-4.047a14.968,14.968,0,0,1-5.542-5.595l-.024-.042,0-.008A15,15,0,0,1,266.529,282.033Z" transform="translate(-188.192 -195.823)"/><path d="M304.277,328.031h0c3.95,2.21,7.167,3.291,9.873,3.291a8.258,8.258,0,0,0,8.071-5.961c2.363-6.234-4.882-14.64-6.358-16.262a2.734,2.734,0,0,0-1.512-.846c-2.155-.409-13.109-2.184-17.186,3.091a8.653,8.653,0,0,0-1.99,7.182C295.868,321.925,298.761,324.945,304.277,328.031Zm-2.784-13.342c.869-1.125,3.508-1.555,6.351-1.555a31.675,31.675,0,0,1,4.58.341c2.618,3.1,5.463,7.883,4.681,9.948-.7,1.837-1.554,2.149-1.836,2.252-1.105.4-3.445.309-8.32-2.418h0c-4.875-2.727-6.178-4.673-6.414-5.825C300.475,317.137,300.292,316.243,301.493,314.689Z" transform="translate(-214.305 -223.482)"/></g></g></svg>