<svg xmlns="http://www.w3.org/2000/svg" width="156" height="208" viewBox="0 0 156 208"><defs><style>.a{fill:#fff;opacity:0;}.b{fill:#46c373;}.c{fill:#a5dc69;}.d{fill:#ff5a5a;}</style></defs><g transform="translate(-550 -779)"><rect class="a" width="156" height="208" transform="translate(550 779)"/><g transform="translate(557 810.649)"><path class="b" d="M289,106.955c6.515-5.873,16.526-11.205,31.157-10.52-.132,14.418-5.128,24.622-10.193,31.284,0,0-14.77-2.547-26.95,4.867C288.595,116.728,289,106.955,289,106.955Z" transform="translate(-204.691 -68.728)"/><g transform="translate(50.591 4.118)"><path class="c" d="M280.968,216.1s21.327-14.192,34.4-1.114c11.746,11.746,20.283,12.878,26.763,8.322-5.667,11.762-15.3,18.5-22.692,19.627,0,0-3.6-11.5-18.08-7.425-9.133-8.1-16.057-7.5-16.057-7.5S284.833,221.025,280.968,216.1Z" transform="translate(-253.804 -154.627)"/><path class="c" d="M209.672,72.52s14.192-21.327,1.114-34.4c-11.746-11.746-12.878-20.283-8.322-26.763-11.852,5.711-18.6,15.443-19.652,22.862,0,0,11.314,4.48,8.819,19.358,5.254,1.964,7.495,6.216,7.2,14.514A17.637,17.637,0,0,1,209.672,72.52Z" transform="translate(-182.812 -11.352)"/></g><g transform="translate(2.767 26.048)"><circle class="d" cx="13.823" cy="13.823" r="13.823" transform="translate(50.006 36.877)"/><path class="d" d="M128.946,242.711a13.807,13.807,0,0,1-12.848-6.425,13.82,13.82,0,1,0,15.093,18.747A13.831,13.831,0,0,1,128.946,242.711Z" transform="translate(-78.364 -195.967)"/><path class="d" d="M202.575,325.285a13.941,13.941,0,0,1-1.334-1.169,13.79,13.79,0,0,1-4-10.916,13.819,13.819,0,0,1-13.488-3.24,13.825,13.825,0,1,0,18.821,15.326Z" transform="translate(-129.456 -249.253)"/><path class="d" d="M267.881,370.876c-.027-.026-.054-.05-.08-.076a13.782,13.782,0,0,1-2.871-4.193l.015-.009a13.836,13.836,0,0,1-14.957-1.245,13.816,13.816,0,0,1-9.271,10.6,13.82,13.82,0,0,0,27.164-5.076Z" transform="translate(-176.869 -289.316)"/><path class="d" d="M125.452,113.789a13.825,13.825,0,0,1,15.356-2.871,13.826,13.826,0,1,0-17.783,6.146A13.814,13.814,0,0,1,125.452,113.789Z" transform="translate(-85.786 -90.594)"/><path class="d" d="M157.142,181.56a13.765,13.765,0,0,1,8.633-4,13.829,13.829,0,1,0-12.106,9.816A13.759,13.759,0,0,1,157.142,181.56Z" transform="translate(-103.087 -140.634)"/><path class="d" d="M331.481,316.745a13.825,13.825,0,0,0,2.871-15.356,13.826,13.826,0,1,1-6.146,17.783A13.818,13.818,0,0,0,331.481,316.745Z" transform="translate(-240.147 -241.882)"/><path class="d" d="M260.642,285.053a13.764,13.764,0,0,0,4-8.633,13.829,13.829,0,1,1-9.816,12.106A13.762,13.762,0,0,0,260.642,285.053Z" transform="translate(-187.039 -224.578)"/><path class="d" d="M145.852,182.516c.117-.2.241-.387.368-.578C146.092,182.128,145.969,182.32,145.852,182.516Z" transform="translate(-108.256 -156.66)"/><path class="d" d="M89.205,189.176a13.835,13.835,0,0,1-.314-14.161c-.059.1-.125.206-.181.312a13.785,13.785,0,0,1-4.193-2.871,14,14,0,0,1-.989-1.1,13.82,13.82,0,0,0-5.207,27.141,13.812,13.812,0,0,1,10.884-9.319Z" transform="translate(-51.471 -148.857)"/><path class="d" d="M113.865,328.508q-.431-.525-.921-1.017t-1.017-.921a13.832,13.832,0,0,1-13.314-2.358,13.823,13.823,0,1,0,17.611,17.611A13.832,13.832,0,0,1,113.865,328.508Z" transform="translate(-67.388 -259.561)"/><path class="d" d="M183.829,399.168c-.165-.15-.327-.3-.486-.462a13.755,13.755,0,0,1-3.752-6.934l.067-.024a13.754,13.754,0,0,1-15.211-4.521c.045.056.086.115.131.172a13.844,13.844,0,0,1-7.731,8.2,13.821,13.821,0,1,0,26.982,3.568Z" transform="translate(-115.743 -305.137)"/><path class="d" d="M54.526,273.994A13.754,13.754,0,0,1,50,258.783c-.007.022-.017.044-.024.067a13.756,13.756,0,0,1-6.934-3.752q-.238-.238-.462-.486a13.821,13.821,0,1,0,3.568,26.982,13.843,13.843,0,0,1,8.2-7.731C54.411,273.909,54.47,273.949,54.526,273.994Z" transform="translate(-23.131 -209.212)"/><path class="d" d="M46.954,415.4a13.824,13.824,0,0,1-18.069,1.282,13.823,13.823,0,0,0,16.786,16.786A13.825,13.825,0,0,1,46.954,415.4Z" transform="translate(-23.356 -325.516)"/><path class="d" d="M105.6,424.4a13.818,13.818,0,0,1-3.4-13.949,13.824,13.824,0,0,1-14.788-2.69,13.824,13.824,0,1,0,19.543,17.823A13.9,13.9,0,0,1,105.6,424.4Z" transform="translate(-61.092 -319.989)"/><path class="d" d="M33.022,339.719a13.789,13.789,0,0,1-15.133-4.755,13.822,13.822,0,1,0,17.823,19.543A13.824,13.824,0,0,1,33.022,339.719Z" transform="translate(-10 -267.337)"/></g><path d="M140.713,70.688a2.767,2.767,0,0,0-3.382-.153c-2.208,1.552-8.925,6.275-23.214-8.015a21.394,21.394,0,0,0-5.206-3.847,55.153,55.153,0,0,0,9.321-30.94,2.768,2.768,0,0,0-2.638-2.79c-11.881-.556-22.563,2.717-31.073,9.482a21.346,21.346,0,0,0-4-5.5,2.768,2.768,0,1,0-3.914,3.914c9.921,9.921,1.4,26.086-.918,30.029a16.383,16.383,0,0,0-4.55-2.079c4.712-5.762,5.272-14.48.808-21.5a2.768,2.768,0,0,0-4.67,2.971,13.272,13.272,0,0,1,1.017,12.752,16.562,16.562,0,0,0-6.975-9.863,16.577,16.577,0,0,0-7.569-19.719c1.316-4.641,5.081-10.356,11.29-14.958a16.521,16.521,0,0,0,.242,4.282,2.767,2.767,0,0,0,5.443-1,10.153,10.153,0,0,1,1.783-8.04,2.767,2.767,0,0,0-3.465-4.085c-11.47,5.527-18.253,14.49-20.507,21.928a16.576,16.576,0,0,0-18.454,22.2A16.6,16.6,0,0,0,17.432,69.209,16.588,16.588,0,0,0,6.816,92.759a16.587,16.587,0,0,0-1.957,25.133c.136.136.276.265.416.4a16.605,16.605,0,0,0,18.738,18.738c.13.139.26.28.4.416a16.577,16.577,0,0,0,25.138-1.962,16.567,16.567,0,0,0,23.546-10.611,16.576,16.576,0,0,0,23.363-12.08,16.583,16.583,0,0,0,23.266-18.351,31.274,31.274,0,0,0,10.253-5.7A43.316,43.316,0,0,0,141.416,74,2.769,2.769,0,0,0,140.713,70.688Zm-28.1-40.272A47.934,47.934,0,0,1,103.5,56.722a29.723,29.723,0,0,0-14.181.738l-.18.051,6.778-6.778A2.768,2.768,0,0,0,92,46.819L85.75,53.073a29.672,29.672,0,0,0,.673-13.024C93.574,33.715,102.371,30.48,112.61,30.415ZM95.383,91.137a11.054,11.054,0,0,1-17.755,8.792l0,0a11,11,0,0,1-4.32-8.007,16.575,16.575,0,0,0,9.525-11.732,11.051,11.051,0,0,1,12.554,10.95Zm-29.556,18.9c-.045.013-.089.028-.133.044a11.059,11.059,0,0,1-9.029-20.04,16.558,16.558,0,0,0,9.932,3.3c.428,0,.856-.021,1.283-.054a16.553,16.553,0,0,0,4.716,9.591c.061.061.126.118.188.178a11.051,11.051,0,0,1-6.957,6.986ZM46.366,111.57a11.045,11.045,0,0,1-3.486,2.359c-.048.019-.1.039-.142.061a11.069,11.069,0,0,1-11.779-2.2c-.154-.143-.3-.291-.446-.446a11.071,11.071,0,0,1-2.2-11.785c.019-.043.038-.086.056-.13a11.1,11.1,0,0,1,5.246-5.569,16.632,16.632,0,0,0,12.417,2.4,16.759,16.759,0,0,0-.326,3.295,16.474,16.474,0,0,0,2.737,9.134,10.984,10.984,0,0,1-2.077,2.883ZM40.477,70.749a16.633,16.633,0,0,0,9.591,4.711,16.609,16.609,0,0,0,2.351,9.9,11.058,11.058,0,0,1-20.2-8.743c.019-.054.038-.108.054-.163a11.065,11.065,0,0,1,7.062-6.967A16.911,16.911,0,0,0,40.477,70.749Zm37.176,6a10.984,10.984,0,0,1-3.238,7.818h0a11.065,11.065,0,0,1-15.387.236L59,84.776c-.074-.07-.149-.138-.221-.21a11.056,11.056,0,1,1,18.874-7.818Zm-14.5-16.232a16.576,16.576,0,0,0-11.73,9.525,11.046,11.046,0,0,1-8.558-5.1c-.019-.032-.039-.062-.059-.093A11.057,11.057,0,0,1,60.026,51.2,11.116,11.116,0,0,1,63.157,60.516ZM37.77,32.053A11.056,11.056,0,0,1,56.218,42.913a16.706,16.706,0,0,0-4.01-.486,16.482,16.482,0,0,0-11.731,4.859,16.835,16.835,0,0,0-1.361,1.545A11.04,11.04,0,0,1,37.77,32.053ZM24.641,54.341a11.069,11.069,0,0,1,8.792-3.185c.139.15.278.3.424.446a16.6,16.6,0,0,0,2.621,2.131,16.7,16.7,0,0,0,.1,10.869,16.643,16.643,0,0,0-8.526,7.692,11.023,11.023,0,0,1-3.41-2.318q-.19-.19-.369-.387l-.019-.02a11.057,11.057,0,0,1,.387-15.228ZM13.8,77.435a11.08,11.08,0,0,1,7.27-3.217,16.523,16.523,0,0,0,5.267,3.358A16.839,16.839,0,0,0,26.158,80,16.465,16.465,0,0,0,29.427,89.9a16.636,16.636,0,0,0-5.592,6.18A11.017,11.017,0,0,1,13.8,93.07a11.271,11.271,0,0,1-.916-1.041c-.016-.022-.034-.043-.051-.065A11.053,11.053,0,0,1,13.8,77.435ZM8.773,98.343a11.087,11.087,0,0,1,1.34-1.141,16.527,16.527,0,0,0,11.48,4.645c.159,0,.319,0,.478-.009a16.89,16.89,0,0,0-.113,1.914A16.465,16.465,0,0,0,25,113.329c-.19.223-.386.441-.594.649a11.071,11.071,0,0,1-14.43,1.042L9.954,115a11.114,11.114,0,0,1-1.18-1.022,11.055,11.055,0,0,1,0-15.635Zm5.109,30.076a10.969,10.969,0,0,1-3.192-6.758,16.614,16.614,0,0,0,9.2.752,16.692,16.692,0,0,0,.752,9.2A10.967,10.967,0,0,1,13.882,128.419Zm14.44,5.109a11.079,11.079,0,0,1-1.022-1.18l-.02-.025a11.072,11.072,0,0,1,1.042-14.43c.208-.208.426-.4.649-.594a16.465,16.465,0,0,0,9.577,3.045,16.8,16.8,0,0,0,1.913-.113A16.527,16.527,0,0,0,45.1,132.189a11.05,11.05,0,0,1-16.775,1.338ZM50.3,129.443l-.018-.014a11.006,11.006,0,0,1-4.062-10.964,16.633,16.633,0,0,0,6.18-5.592,16.465,16.465,0,0,0,9.893,3.269h0a16.842,16.842,0,0,0,2.426-.176,16.524,16.524,0,0,0,3.359,5.267A11.045,11.045,0,0,1,50.3,129.443ZM87.959,117.66a11.048,11.048,0,0,1-17.953-3.41,16.663,16.663,0,0,0,7.474-8,16.638,16.638,0,0,0,12.126.613,16.535,16.535,0,0,0,1.538,2A11.082,11.082,0,0,1,87.959,117.66Zm23.332-12.086a11.067,11.067,0,0,1-15.564.068v0l-.078-.074a11.049,11.049,0,0,1-1.136-1.338,16.621,16.621,0,0,0,5.919-17.1,11.058,11.058,0,0,1,10.86,18.45Zm6.436-16.308A16.594,16.594,0,0,0,98.2,82.026a16.622,16.622,0,0,0-13.225-7.468,13.312,13.312,0,0,1,6.884-1.765,11.175,11.175,0,0,1,8.247,3.74,2.767,2.767,0,1,0,4.156-3.655,16.651,16.651,0,0,0-12.27-5.618,18.836,18.836,0,0,0-10.222,2.759,16.426,16.426,0,0,0-1.524-2.708c4.059-2.379,20.1-10.742,29.961-.878,8.222,8.222,15.715,12.094,22.381,11.579C128.038,84.191,122.433,87.923,117.727,89.266Z" transform="translate(0)"/><path d="M249.463,67.576a2.767,2.767,0,0,0-.831,3.824l.059.091a2.767,2.767,0,0,0,4.641-3.015l-.044-.068A2.767,2.767,0,0,0,249.463,67.576Z" transform="translate(-179.507 -47.58)"/><path d="M357.457,143.1a2.768,2.768,0,1,0-1.957-.811A2.788,2.788,0,0,0,357.457,143.1Z" transform="translate(-256.534 -98.517)"/></g></g></svg>