<svg xmlns="http://www.w3.org/2000/svg" width="156" height="208" viewBox="0 0 156 208"><defs><style>.a{fill:#fff;opacity:0;}.b{fill:#c88c64;}.c{fill:#a5dc69;}.d{fill:#46c373;}.e{fill:#d7fa91;}.f{fill:#ff6e37;}</style></defs><g transform="translate(-1213 -217)"><rect class="a" width="156" height="208" transform="translate(1213 217)"/><g transform="translate(1202.553 247)"><path class="b" d="M109.862,26.308a20.1,20.1,0,0,0-6.667-10.784l5.577-5.547c5.166,3.983,8.653,10.083,9.592,14.442Z" transform="translate(-58.779 -7.087)"/><path class="c" d="M187.156,17.374S166.995.254,148.21,19.038C165.733,36.561,187.156,17.374,187.156,17.374Z" transform="translate(-90.755 -7.27)"/><path class="d" d="M65.755,63.863h0a16.955,16.955,0,0,1,16.842,15l2.669,23.013a103.1,103.1,0,0,0,11.579,36.9h0A35.289,35.289,0,0,1,82.731,186.4h0a35.288,35.288,0,0,1-33.954,0h0a35.289,35.289,0,0,1-14.114-47.629h0a103.1,103.1,0,0,0,11.579-36.9l2.669-23.013a16.956,16.956,0,0,1,16.843-15Z" transform="translate(-7.112 -45.364)"/><path class="e" d="M180.782,99.688h0a16.955,16.955,0,0,1,22.087,4.571l13.818,18.6a103.1,103.1,0,0,0,28.476,26.163h0a35.288,35.288,0,0,1,11.592,48.3h0A35.289,35.289,0,0,1,227.349,214.3h0a35.288,35.288,0,0,1-36.037-34.192h0a103.108,103.108,0,0,0-8.42-37.743L173.7,121.1a16.955,16.955,0,0,1,7.085-21.413Z" transform="translate(-107.868 -69.198)"/><path class="f" d="M286.6,311.557c7.711,13.356,27.813,15.1,37.4-.908a15.964,15.964,0,0,0,2.261-8.476c-.184-10.653-6.229-18-13.866-20.9h0l-24.71-10.051-3.638,26.291.011-.006A21.025,21.025,0,0,0,286.6,311.557Z" transform="translate(-187.043 -192.657)"/><path d="M144.845,452.092h-.15a2.891,2.891,0,0,0-.016,5.781h.166a2.891,2.891,0,0,0,0-5.781Z" transform="translate(-86.205 -321.137)"/><path d="M77.058,363.76a20.9,20.9,0,0,1-8.333-28.122,2.89,2.89,0,1,0-5.093-2.735,26.7,26.7,0,0,0,10.645,35.925,2.89,2.89,0,0,0,2.781-5.068Z" transform="translate(-28.44 -235.391)"/><path d="M155.841,100.913a37.948,37.948,0,0,0-17.024-23.55A100.261,100.261,0,0,1,118.78,61.034a2.891,2.891,0,1,0-4.2,3.973,106.055,106.055,0,0,0,21.193,17.271,32.4,32.4,0,0,1-16.354,59.935c-.236.006-.471.008-.707.008a32.5,32.5,0,0,1-32.379-31.4,105.558,105.558,0,0,0-8.656-38.8l-9.2-21.264a14.065,14.065,0,0,1,24.2-13.971l5.246,7.06a2.89,2.89,0,1,0,4.64-3.448l-5.246-7.06a19.846,19.846,0,0,0-21.2-7.293,19.815,19.815,0,0,0-2.864-4.028c.348.014.7.026,1.047.026a31.041,31.041,0,0,0,10.143-1.8A44.746,44.746,0,0,0,98.33,12.257,2.891,2.891,0,0,0,98.273,7.9,37.435,37.435,0,0,0,84.7,1.1C77.849-.7,67.9-.913,58.064,7.3A30.3,30.3,0,0,0,51.758.6a2.89,2.89,0,0,0-3.8.24L42.378,6.388a2.89,2.89,0,0,0,.192,4.273A17.9,17.9,0,0,1,48,18.71a19.822,19.822,0,0,0-9.066,14.458L36.26,56.181A99.787,99.787,0,0,1,25.006,92.043a38.182,38.182,0,0,0,63.784,41.493,38.663,38.663,0,0,0,3.649,3.983A37.933,37.933,0,0,0,118.7,148q.424,0,.849-.009a38.178,38.178,0,0,0,36.3-47.079ZM91.507,10.2a38.549,38.549,0,0,1-9.1,4.632c-7.8,2.65-14.732,1.611-20.645-3.083C73.817,1.692,85.992,6.84,91.507,10.2ZM48.541,8.412l1.592-1.584A25.563,25.563,0,0,1,56.1,15.775a19.762,19.762,0,0,0-2.8.565A23.844,23.844,0,0,0,48.541,8.412ZM74.229,138.506A32.4,32.4,0,0,1,30.1,94.778,105.561,105.561,0,0,0,42,56.847l2.669-23.013A14.066,14.066,0,0,1,70.807,28.39a19.841,19.841,0,0,0-7.631,24.661l9.2,21.265A99.794,99.794,0,0,1,80.555,111a38,38,0,0,0,4.808,17.432A32.469,32.469,0,0,1,74.229,138.506Z"/><path d="M316.2,179.976a2.89,2.89,0,1,0,4.641-3.446l-.074-.1a2.89,2.89,0,0,0-4.641,3.446Z" transform="translate(-209.624 -124.495)"/><path d="M279.161,261.628a2.891,2.891,0,0,0-1.418,2.107L274.1,290.026c-.008.055-.014.111-.018.166a24.008,24.008,0,0,0,23.539,27.726h.2c8.811,0,16.666-4.683,21.573-12.872a18.825,18.825,0,0,0,2.672-10.011c-.188-10.883-6.184-19.89-15.655-23.526l-.011,0L281.7,261.454A2.892,2.892,0,0,0,279.161,261.628Zm25,15.2c.043.018.086.036.13.053,7.368,2.8,11.855,9.624,12,18.25a13.051,13.051,0,0,1-1.85,6.94c-3.836,6.4-9.886,10.063-16.618,10.063h-.151a18.226,18.226,0,0,1-17.843-21.24,2.841,2.841,0,0,0,.036-.319l3.1-22.368Z" transform="translate(-179.964 -185.569)"/></g></g></svg>