<svg xmlns="http://www.w3.org/2000/svg" width="156" height="208" viewBox="0 0 156 208"><defs><style>.a{fill:#fff;opacity:0;}.b{fill:#46c373;}.c{fill:#7d9bff;}.d{fill:#9bbeff;}.e{fill:#a5dc69;}.f{fill:#464b9b;}</style></defs><g transform="translate(-992 -779)"><rect class="a" width="156" height="208" transform="translate(992 779)"/><g transform="translate(1005.999 819)"><path class="b" d="M185.272,43.555s-.915-13.337,9.4-20.492S213.977,12.5,216.8,10c10.982,10.9,11.148,42.014-1.282,52.216,0,0-11.031,2.444-16.189,8.434C199.039,55.181,185.272,43.555,185.272,43.555Z" transform="translate(-139.014 -7.505)"/><g transform="translate(2.497 31.947)"><circle class="c" cx="28.91" cy="28.91" r="28.91" transform="translate(0 35.526)"/><path class="c" d="M38.911,163.526a28.86,28.86,0,0,1,22.811,11.148,28.91,28.91,0,1,0-45.621,0A28.86,28.86,0,0,1,38.911,163.526Z" transform="translate(-10.001 -128.002)"/></g><path class="d" d="M246.155,216.35a28.861,28.861,0,0,0-22.934,11.309,28.768,28.768,0,0,1-5.636,13.157c-.013.087-.025.175-.038.262a28.781,28.781,0,0,1,6.021,17.656,29.143,29.143,0,0,1-.3,4.185,28.91,28.91,0,1,0,22.89-46.569Z" transform="translate(-163.25 -162.352)"/><path class="e" d="M363.261,166.534a23.848,23.848,0,0,0-18.965,9.105l.185.178a28.924,28.924,0,0,1,25.381,24.443h0c13.794-10.4,13.794-38.162,13.794-38.162S377.168,166.534,363.261,166.534Z" transform="translate(-258.364 -121.641)"/><g transform="translate(10.971 39.564)"><path class="f" d="M59.685,375.212h0a8.879,8.879,0,0,0,5.244,9.084h0a8.878,8.878,0,0,0-5.244,9.084h0a8.878,8.878,0,0,0-10.489,0h0a8.879,8.879,0,0,0-5.244-9.084h0a8.878,8.878,0,0,0,5.244-9.084h0A8.879,8.879,0,0,0,59.685,375.212Z" transform="translate(-43.952 -321.128)"/><path class="f" d="M307.535,329.966h0a9.936,9.936,0,0,0,5.869,10.165h0a9.936,9.936,0,0,0-5.869,10.165h0a9.936,9.936,0,0,0-11.738,0h0a9.936,9.936,0,0,0-5.869-10.165h0a9.936,9.936,0,0,0,5.869-10.165h0A9.936,9.936,0,0,0,307.535,329.966Z" transform="translate(-228.536 -287.175)"/><path class="f" d="M99.543,158.518h0c-.418,3.372,1.7,6.594,5.244,7.962h0c-3.541,1.368-5.663,4.59-5.244,7.962h0a9.9,9.9,0,0,0-10.489,0h0c.418-3.372-1.7-6.594-5.244-7.962h0c3.541-1.368,5.663-4.59,5.244-7.962h0A9.9,9.9,0,0,0,99.543,158.518Z" transform="translate(-73.862 -158.518)"/></g><path d="M58.434,374.508a6.359,6.359,0,0,1-3.77-6.53,2.5,2.5,0,0,0-3.955-2.284,6.358,6.358,0,0,1-7.54,0,2.5,2.5,0,0,0-3.955,2.284,6.359,6.359,0,0,1-3.77,6.53,2.5,2.5,0,0,0,0,4.567,6.359,6.359,0,0,1,3.77,6.53,2.5,2.5,0,0,0,3.955,2.284,6.358,6.358,0,0,1,7.54,0,2.5,2.5,0,0,0,3.955-2.284,6.359,6.359,0,0,1,3.77-6.53,2.5,2.5,0,0,0,0-4.567Zm-8.446,7.566a11.31,11.31,0,0,0-6.1,0,11.311,11.311,0,0,0-3.05-5.282,11.306,11.306,0,0,0,3.05-5.282,11.3,11.3,0,0,0,6.1,0,11.311,11.311,0,0,0,3.05,5.282A11.307,11.307,0,0,0,49.988,382.074Z" transform="translate(-25.479 -274.061)"/><path d="M306.909,334.912a2.5,2.5,0,0,0,0-4.567,7.413,7.413,0,0,1-4.395-7.612,2.5,2.5,0,0,0-3.955-2.283,7.413,7.413,0,0,1-8.789,0,2.5,2.5,0,0,0-3.955,2.284,7.413,7.413,0,0,1-4.395,7.612,2.5,2.5,0,0,0,0,4.567,7.412,7.412,0,0,1,4.395,7.612,2.5,2.5,0,0,0,3.955,2.284,7.411,7.411,0,0,1,8.789,0,2.5,2.5,0,0,0,3.955-2.283A7.413,7.413,0,0,1,306.909,334.912Zm-9.117,4a12.361,12.361,0,0,0-7.257,0,12.361,12.361,0,0,0-3.628-6.285,12.363,12.363,0,0,0,3.628-6.285,12.366,12.366,0,0,0,7.257,0,12.361,12.361,0,0,0,3.629,6.285A12.361,12.361,0,0,0,297.792,338.913Z" transform="translate(-210.063 -240.108)"/><path d="M98.183,156.648c-2.47-.955-3.944-3.1-3.667-5.327a2.5,2.5,0,0,0-3.825-2.408,7.428,7.428,0,0,1-7.793,0,2.5,2.5,0,0,0-3.825,2.408c.277,2.232-1.2,4.372-3.667,5.327a2.5,2.5,0,0,0,0,4.656c2.47.955,3.944,3.1,3.667,5.327a2.5,2.5,0,0,0,3.825,2.408,7.428,7.428,0,0,1,7.793,0,2.5,2.5,0,0,0,3.825-2.408c-.277-2.231,1.2-4.372,3.667-5.327a2.5,2.5,0,0,0,0-4.656Zm-8.285,6.68a12.6,12.6,0,0,0-6.207,0,9.97,9.97,0,0,0-2.743-4.352,9.974,9.974,0,0,0,2.743-4.352,12.605,12.605,0,0,0,6.207,0,9.97,9.97,0,0,0,2.743,4.352A9.97,9.97,0,0,0,89.9,163.328Z" transform="translate(-55.387 -111.45)"/><path d="M78.474,401.6a2.493,2.493,0,1,0,1.767.732A2.514,2.514,0,0,0,78.474,401.6Z" transform="translate(-57.016 -301.367)"/><path d="M329.457,364.952a2.5,2.5,0,1,0,1.765.731A2.51,2.51,0,0,0,329.457,364.952Z" transform="translate(-245.355 -273.865)"/><path d="M118.327,180.421a2.5,2.5,0,1,0,1.765.731A2.5,2.5,0,0,0,118.327,180.421Z" transform="translate(-86.92 -135.391)"/><path d="M418.355,392.674a2.5,2.5,0,0,0-3.527.457l-.025.033a2.5,2.5,0,0,0,.435,3.53,2.535,2.535,0,0,0,1.534.516,2.56,2.56,0,0,0,1.584-4.537Z" transform="translate(-310.866 -294.271)"/><path d="M283.881,77.76a2.5,2.5,0,0,0-3.53.006l-.1.1a2.5,2.5,0,1,0,3.542,3.517l.1-.1A2.5,2.5,0,0,0,283.881,77.76Z" transform="translate(-209.757 -57.806)"/><path d="M127.789,40.458a2.489,2.489,0,0,0-3.89-2.07c-.06.04-6.189,4.009-19,4.009a26.454,26.454,0,0,0-20.215,9.157c-.589-.033-1.181-.051-1.777-.051-.111,0-.221,0-.332,0,3.351-5.211,5.4-12.4,5.791-20.657C88.959,18.255,85.58,6.711,79.547.724a2.5,2.5,0,0,0-3.411-.1,42.407,42.407,0,0,1-6.261,3.652,143.8,143.8,0,0,0-15.639,9.229c-7.69,5.333-9.784,13.588-10.322,18.546A31.4,31.4,0,0,0,0,60.858a31.067,31.067,0,0,0,5.515,17.77,31.4,31.4,0,1,0,55.861,27.151,31.436,31.436,0,0,0,35.363,5.332,2.5,2.5,0,0,0-2.2-4.48,26.43,26.43,0,0,1-31.915-6.8,31.6,31.6,0,0,0,.19-3.445A31.228,31.228,0,0,0,57.3,78.627a30.957,30.957,0,0,0,5.039-12.289,26.228,26.228,0,0,1,14.548-9.161,2.527,2.527,0,0,0,.3-.065A26.441,26.441,0,0,1,108.5,89.454a2.5,2.5,0,1,0,4.837,1.233,31.651,31.651,0,0,0,.807-11C127.628,68.1,127.789,41.61,127.789,40.458ZM31.407,122.8A26.415,26.415,0,1,1,57.822,96.382,26.444,26.444,0,0,1,31.407,122.8Zm0-57.821a31.315,31.315,0,0,0-22.577,9.6A26.128,26.128,0,0,1,4.993,60.858a26.415,26.415,0,1,1,52.829,0,26.847,26.847,0,0,1-.3,3.974c-.015.078-.026.155-.034.233a25.985,25.985,0,0,1-3.505,9.509A31.316,31.316,0,0,0,31.407,64.976ZM62.86,58.72a40.15,40.15,0,0,1,4.633-26.515,2.5,2.5,0,1,0-4.347-2.454,45.175,45.175,0,0,0-5.163,14.391,31.653,31.653,0,0,0-9.245-9.462c.08-3.188,1-11.976,8.343-17.071A137.522,137.522,0,0,1,72.2,8.695c2.1-1.107,3.84-2.021,5.2-2.864,4.134,5.369,6.448,14.784,5.976,24.784-.454,9.62-3.44,17.7-8.021,21.8A31.029,31.029,0,0,0,62.86,58.72Zm41.122.924a19.158,19.158,0,0,1,9.418-2.437,2.5,2.5,0,1,0,0-4.992,24.069,24.069,0,0,0-13.66,4.19,31.252,31.252,0,0,0-8.951-3.9A21.591,21.591,0,0,1,104.9,47.388,49.691,49.691,0,0,0,122.6,44.5c-.526,6.941-2.469,21.149-9.629,29.331A31.473,31.473,0,0,0,103.982,59.644Z" transform="translate(0 0)"/></g></g></svg>