<svg xmlns="http://www.w3.org/2000/svg" width="156" height="208" viewBox="0 0 156 208"><defs><style>.a{fill:#fff;opacity:0;}.b{fill:#46c373;}.c{fill:#a5dc69;}.d{fill:#f5b955;}</style></defs><g transform="translate(-549 -216)"><rect class="a" width="156" height="208" transform="translate(549 216)"/><g transform="translate(475 237)"><g transform="translate(114.704 24.831)"><path class="b" d="M255.906,97.746c6.764-12.611,20.918-21.282,37.306-21.282,0,0-11.408,9.179-17.315,22.825Z" transform="translate(-218.631 -76.464)"/><path class="b" d="M158.436,99.289c-5.908-13.647-17.315-22.825-17.315-22.825,16.388,0,30.542,8.671,37.306,21.282Z" transform="translate(-141.121 -76.464)"/></g><g transform="translate(123.659 3.247)"><path class="c" d="M224.845,30.126C224.845,19,232.143,10,234.966,10c2.389,0,10.074,9,10.074,20.126L234.987,41Z" transform="translate(-206.611 -10)"/><path class="c" d="M180.159,52.855A56.416,56.416,0,0,0,168.7,34.562c15.684,0,28.375,14.393,28.375,32.181Z" transform="translate(-168.696 -26.586)"/><path class="c" d="M255.942,66.744c0-17.788,12.691-32.181,28.375-32.181a56.422,56.422,0,0,0-11.463,18.293Z" transform="translate(-227.61 -26.586)"/></g><path class="d" d="M149.993,142h17.539a37.993,37.993,0,0,1,37.993,37.993v40.921a37.993,37.993,0,0,1-37.993,37.993h-17.54A37.993,37.993,0,0,1,112,220.914V179.993A37.993,37.993,0,0,1,149.993,142Z" transform="translate(-6.753 -95.887)"/><path d="M218.519,381.23a18.039,18.039,0,0,0,9.355-6.945,18.036,18.036,0,0,0,9.354,6.945,3.247,3.247,0,0,0,1.982-6.185,11.547,11.547,0,0,1-7.11-6.489l-1.237-2.912a3.248,3.248,0,0,0-5.978,0l-1.236,2.912a11.549,11.549,0,0,1-7.111,6.489,3.247,3.247,0,0,0,1.982,6.185Z" transform="translate(-75.818 -245.569)"/><path d="M240.214,296.37a10.219,10.219,0,0,1-6.292-5.741l-1.126-2.65a3.247,3.247,0,0,0-5.978,0l-1.126,2.651a10.217,10.217,0,0,1-6.291,5.741,3.247,3.247,0,0,0,1.982,6.185,16.707,16.707,0,0,0,8.424-6.093,16.707,16.707,0,0,0,8.424,6.093,3.248,3.248,0,0,0,1.983-6.185Z" transform="translate(-77.753 -193.125)"/><path d="M218.413,219.6a18.084,18.084,0,0,0,9.389-6.976,18.084,18.084,0,0,0,9.389,6.976,3.247,3.247,0,1,0,1.982-6.185,11.6,11.6,0,0,1-7.141-6.516l-1.241-2.922a3.248,3.248,0,0,0-5.978,0l-1.24,2.922a11.6,11.6,0,0,1-7.141,6.516,3.248,3.248,0,0,0,1.982,6.185Z" transform="translate(-75.747 -136.402)"/><path d="M180.247,276.5a3.247,3.247,0,1,0-2.037,6.167l.132.043a3.248,3.248,0,0,0,1.988-6.184Z" transform="translate(-49.956 -186.601)"/><path d="M173.154,185.579a3.248,3.248,0,0,0,1-6.339,8.588,8.588,0,0,1-5.28-4.833l-.985-2.331a3.247,3.247,0,0,0-2.986-1.983h-.006a3.247,3.247,0,0,0-2.987,1.973l-.993,2.328a8.587,8.587,0,0,1-5.3,4.817,3.247,3.247,0,0,0,1.972,6.188,15.072,15.072,0,0,0,7.292-5.064,15.079,15.079,0,0,0,7.276,5.087A3.243,3.243,0,0,0,173.154,185.579Z" transform="translate(-34.678 -114.857)"/><path d="M290.924,185.579a3.236,3.236,0,0,0,1-.158,15.074,15.074,0,0,0,7.276-5.087,15.076,15.076,0,0,0,7.292,5.064,3.247,3.247,0,0,0,1.972-6.188,8.587,8.587,0,0,1-5.3-4.817l-.993-2.328a3.247,3.247,0,0,0-2.987-1.973h0a3.247,3.247,0,0,0-2.986,1.983l-.985,2.331a8.587,8.587,0,0,1-5.28,4.833,3.248,3.248,0,0,0,.995,6.339Z" transform="translate(-125.38 -114.857)"/><path d="M328.973,479.159l-.051.032a3.251,3.251,0,0,0,1.728,6,3.213,3.213,0,0,0,1.725-.5l.051-.032a3.247,3.247,0,1,0-3.453-5.5Z" transform="translate(-152.206 -323.218)"/><path d="M176.387,45.936a65.861,65.861,0,0,1,14.933-18.575,3.247,3.247,0,0,0-2.036-5.777,48.379,48.379,0,0,0-14.038,2.069,52.8,52.8,0,0,1,7.409-10.128,3.247,3.247,0,0,0-2.291-5.548,29.009,29.009,0,0,0-16.808,5.433A31.952,31.952,0,0,0,159.426,5.5C157.61,2.991,154.849,0,152.014,0c-4.074,0-9.076,5.979-11.636,13.347a29,29,0,0,0-16.719-5.371,3.247,3.247,0,0,0-2.291,5.548,52,52,0,0,1,7.425,10.145A48.363,48.363,0,0,0,114.7,21.583a3.248,3.248,0,0,0-2.039,5.775,65.847,65.847,0,0,1,14.942,18.587A41.3,41.3,0,0,0,102,84.106v40.921a41.287,41.287,0,0,0,41.24,41.24h17.54a41.807,41.807,0,0,0,5.158-.32,3.247,3.247,0,0,0-.8-6.445,35.265,35.265,0,0,1-4.353.27H143.24A34.693,34.693,0,0,1,116.268,146.9a20.253,20.253,0,0,0,7.1-6.738,20.263,20.263,0,0,0,10.913,8.41,3.247,3.247,0,0,0,1.982-6.185,13.776,13.776,0,0,1-8.483-7.74L126.36,131.3a3.247,3.247,0,0,0-5.978,0l-1.423,3.351a13.773,13.773,0,0,1-6.313,6.833,34.529,34.529,0,0,1-4.151-16.456v-3.416a20.255,20.255,0,0,0,8.981-7.677,20.261,20.261,0,0,0,10.913,8.41,3.247,3.247,0,0,0,1.982-6.185,13.775,13.775,0,0,1-8.483-7.741l-1.423-3.351a3.247,3.247,0,0,0-5.978,0l-1.422,3.351a13.777,13.777,0,0,1-4.569,5.752V95.38a20.257,20.257,0,0,0,9.057-7.8,3.248,3.248,0,0,0,5.034-3.983,13.769,13.769,0,0,1-.7-1.413l-1.423-3.351a3.247,3.247,0,0,0-5.978,0l-1.422,3.351A13.777,13.777,0,0,1,108.5,87.94V84.106A34.784,34.784,0,0,1,143.24,49.36h17.54a34.785,34.785,0,0,1,34.745,34.745V87.94a13.774,13.774,0,0,1-4.569-5.753l-1.423-3.351a3.247,3.247,0,0,0-5.978,0l-1.423,3.351a13.775,13.775,0,0,1-8.483,7.74,3.247,3.247,0,0,0,1.982,6.185,20.263,20.263,0,0,0,10.913-8.41,20.256,20.256,0,0,0,8.981,7.677v18.792a13.775,13.775,0,0,1-4.569-5.753l-1.423-3.351a3.247,3.247,0,0,0-5.978,0l-1.423,3.351a13.775,13.775,0,0,1-8.483,7.74,3.247,3.247,0,0,0,1.982,6.185,20.263,20.263,0,0,0,10.913-8.41,20.256,20.256,0,0,0,8.981,7.677v3.416a34.616,34.616,0,0,1-4.138,16.463,13.774,13.774,0,0,1-6.326-6.84l-1.423-3.351a3.247,3.247,0,0,0-5.978,0l-1.422,3.351a13.779,13.779,0,0,1-8.483,7.741,3.247,3.247,0,0,0,1.982,6.185,20.262,20.262,0,0,0,10.913-8.41,20.26,20.26,0,0,0,7.117,6.746q-.893,1.1-1.881,2.135a3.247,3.247,0,0,0,4.692,4.491,41.049,41.049,0,0,0,11.443-28.51V84.106A41.3,41.3,0,0,0,176.387,45.936ZM166.21,27.477c-.274.152-.55.3-.821.459a44.273,44.273,0,0,0-9.032,6.94c2.387-8.891,8.4-15.966,16.042-18.915A58.917,58.917,0,0,0,166.21,27.477Zm-14.282-20.7A23.378,23.378,0,0,1,158.2,18.16a35.757,35.757,0,0,0-6.19,9.57,35.743,35.743,0,0,0-6.252-9.637C147.149,12.077,150.4,8,151.928,6.778Zm-20.3,9.183c7.658,2.955,13.677,10.05,16.055,18.964a44.273,44.273,0,0,0-9.081-6.989c-.256-.149-.516-.29-.775-.434A58.942,58.942,0,0,0,131.626,15.961Zm2.247,27.978a67.656,67.656,0,0,0-10.247-14.924,38.211,38.211,0,0,1,22.426,13.85H143.24A41.2,41.2,0,0,0,133.873,43.94Zm24.064-1.074a38.21,38.21,0,0,1,22.426-13.85A67.657,67.657,0,0,0,170.12,43.933a41.206,41.206,0,0,0-9.34-1.067Z"/></g></g></svg>